<mxfile host="app.diagrams.net" modified="2020-11-11T17:28:55.600Z" agent="5.0 (Windows NT 10.0; Win64; x64) AppleWebKit/537.36 (KHTML, like Gecko) Chrome/86.0.4240.183 Safari/537.36 Edg/86.0.622.63" etag="RbEdTo9q7Tg7KicxcKKM" version="13.9.3" type="github">
  <diagram id="N4B2qegf66ZTnVH9yuMw" name="Page-1">
    <mxGraphModel dx="583" dy="687" grid="1" gridSize="10" guides="1" tooltips="1" connect="1" arrows="1" fold="1" page="1" pageScale="1" pageWidth="827" pageHeight="1169" math="0" shadow="0">
      <root>
        <mxCell id="0" />
        <mxCell id="1" parent="0" />
        <mxCell id="M0u36gnTDmqWbgYLdVxs-21" value="" style="shape=curlyBracket;whiteSpace=wrap;html=1;rounded=1;size=0.42857142857142855;" parent="1" vertex="1">
          <mxGeometry x="150" y="365" width="100" height="510" as="geometry" />
        </mxCell>
        <mxCell id="M0u36gnTDmqWbgYLdVxs-22" value="&lt;b&gt;&lt;span style=&quot;font-size: 11.0pt ; line-height: 107% ; font-family: &amp;#34;arimo&amp;#34; , sans-serif&quot;&gt;Ventajas&lt;/span&gt;&lt;/b&gt;" style="whiteSpace=wrap;html=1;rounded=1;fillColor=#fff2cc;strokeColor=#d6b656;" parent="1" vertex="1">
          <mxGeometry x="250" y="335" width="120" height="60" as="geometry" />
        </mxCell>
        <mxCell id="M0u36gnTDmqWbgYLdVxs-23" value="&lt;font face=&quot;arimo, sans-serif&quot;&gt;&lt;span style=&quot;font-size: 14.6667px&quot;&gt;&lt;b&gt;Desventajas&lt;/b&gt;&lt;/span&gt;&lt;/font&gt;" style="rounded=1;whiteSpace=wrap;html=1;fillColor=#fff2cc;strokeColor=#d6b656;" parent="1" vertex="1">
          <mxGeometry x="250" y="845" width="120" height="60" as="geometry" />
        </mxCell>
        <mxCell id="M0u36gnTDmqWbgYLdVxs-24" value="&lt;font face=&quot;arimo, sans-serif&quot;&gt;&lt;span style=&quot;font-size: 14.6667px&quot;&gt;&lt;b&gt;La nube&lt;/b&gt;&lt;/span&gt;&lt;/font&gt;" style="rounded=1;whiteSpace=wrap;html=1;fillColor=#ffe6cc;strokeColor=#d79b00;" parent="1" vertex="1">
          <mxGeometry x="40" y="590" width="120" height="60" as="geometry" />
        </mxCell>
        <mxCell id="M0u36gnTDmqWbgYLdVxs-25" value="" style="shape=curlyBracket;whiteSpace=wrap;html=1;rounded=1;" parent="1" vertex="1">
          <mxGeometry x="366" y="665" width="60" height="420" as="geometry" />
        </mxCell>
        <mxCell id="M0u36gnTDmqWbgYLdVxs-26" value="" style="shape=curlyBracket;whiteSpace=wrap;html=1;rounded=1;" parent="1" vertex="1">
          <mxGeometry x="368" y="177.5" width="56" height="375" as="geometry" />
        </mxCell>
        <mxCell id="M0u36gnTDmqWbgYLdVxs-27" value="&lt;font style=&quot;font-size: 14px&quot;&gt;Acceso desde cualquier sitio y con varios dispositivos&lt;/font&gt;" style="rounded=1;whiteSpace=wrap;html=1;fillColor=#f8cecc;strokeColor=#b85450;" parent="1" vertex="1">
          <mxGeometry x="424" y="150" width="146" height="60" as="geometry" />
        </mxCell>
        <mxCell id="M0u36gnTDmqWbgYLdVxs-28" value="&lt;font style=&quot;font-size: 14px&quot;&gt;Todo el software estÃ¡ en un solo sitio&lt;/font&gt;" style="rounded=1;whiteSpace=wrap;html=1;fillColor=#f8cecc;strokeColor=#b85450;" parent="1" vertex="1">
          <mxGeometry x="424" y="240" width="146" height="60" as="geometry" />
        </mxCell>
        <mxCell id="M0u36gnTDmqWbgYLdVxs-29" value="&lt;font style=&quot;font-size: 14px&quot;&gt;Ahorro en software y hardware&lt;/font&gt;" style="rounded=1;whiteSpace=wrap;html=1;fillColor=#f8cecc;strokeColor=#b85450;" parent="1" vertex="1">
          <mxGeometry x="430" y="420" width="140" height="60" as="geometry" />
        </mxCell>
        <mxCell id="M0u36gnTDmqWbgYLdVxs-30" value="&lt;font style=&quot;font-size: 14px&quot;&gt;Escalabilidad&lt;/font&gt;" style="rounded=1;whiteSpace=wrap;html=1;fillColor=#f8cecc;strokeColor=#b85450;" parent="1" vertex="1">
          <mxGeometry x="426" y="525" width="144" height="60" as="geometry" />
        </mxCell>
        <mxCell id="M0u36gnTDmqWbgYLdVxs-31" value="&lt;font style=&quot;font-size: 14px&quot;&gt;Falta de seguridad.&lt;/font&gt;" style="rounded=1;whiteSpace=wrap;html=1;fillColor=#f8cecc;strokeColor=#b85450;" parent="1" vertex="1">
          <mxGeometry x="426" y="650" width="144" height="60" as="geometry" />
        </mxCell>
        <mxCell id="M0u36gnTDmqWbgYLdVxs-32" value="&lt;font style=&quot;font-size: 14px&quot;&gt;Sin Internet no hay nube&lt;/font&gt;" style="rounded=1;whiteSpace=wrap;html=1;fillColor=#f8cecc;strokeColor=#b85450;" parent="1" vertex="1">
          <mxGeometry x="426" y="847.5" width="144" height="52.5" as="geometry" />
        </mxCell>
        <mxCell id="M0u36gnTDmqWbgYLdVxs-33" value="&lt;font style=&quot;font-size: 14px&quot;&gt;Problemas de cobertura legal&amp;nbsp;&lt;/font&gt;" style="rounded=1;whiteSpace=wrap;html=1;fillColor=#f8cecc;strokeColor=#b85450;" parent="1" vertex="1">
          <mxGeometry x="426" y="1060" width="146" height="60" as="geometry" />
        </mxCell>
        <mxCell id="M0u36gnTDmqWbgYLdVxs-34" value="" style="endArrow=none;html=1;entryX=0;entryY=0.5;entryDx=0;entryDy=0;exitX=0.482;exitY=0.247;exitDx=0;exitDy=0;exitPerimeter=0;" parent="1" source="M0u36gnTDmqWbgYLdVxs-26" target="M0u36gnTDmqWbgYLdVxs-28" edge="1">
          <mxGeometry width="50" height="50" relative="1" as="geometry">
            <mxPoint x="421" y="310" as="sourcePoint" />
            <mxPoint x="444" y="300" as="targetPoint" />
            <Array as="points" />
          </mxGeometry>
        </mxCell>
        <mxCell id="M0u36gnTDmqWbgYLdVxs-35" value="" style="endArrow=none;html=1;entryX=0;entryY=0.5;entryDx=0;entryDy=0;exitX=0.48;exitY=0.725;exitDx=0;exitDy=0;exitPerimeter=0;" parent="1" source="M0u36gnTDmqWbgYLdVxs-26" target="M0u36gnTDmqWbgYLdVxs-29" edge="1">
          <mxGeometry width="50" height="50" relative="1" as="geometry">
            <mxPoint x="410" y="440" as="sourcePoint" />
            <mxPoint x="450" y="409.5" as="targetPoint" />
          </mxGeometry>
        </mxCell>
        <mxCell id="M0u36gnTDmqWbgYLdVxs-36" value="" style="endArrow=none;html=1;entryX=0;entryY=0.5;entryDx=0;entryDy=0;exitX=0.1;exitY=0.5;exitDx=0;exitDy=0;exitPerimeter=0;" parent="1" source="M0u36gnTDmqWbgYLdVxs-25" target="M0u36gnTDmqWbgYLdVxs-32" edge="1">
          <mxGeometry width="50" height="50" relative="1" as="geometry">
            <mxPoint x="350" y="975" as="sourcePoint" />
            <mxPoint x="400" y="925" as="targetPoint" />
            <Array as="points" />
          </mxGeometry>
        </mxCell>
        <mxCell id="BPTgxIuJ5kQKBwEXXOTD-1" value="" style="endArrow=none;html=1;entryX=0.1;entryY=0.5;entryDx=0;entryDy=0;entryPerimeter=0;exitX=1;exitY=0.5;exitDx=0;exitDy=0;" edge="1" parent="1" source="M0u36gnTDmqWbgYLdVxs-22" target="M0u36gnTDmqWbgYLdVxs-26">
          <mxGeometry width="50" height="50" relative="1" as="geometry">
            <mxPoint x="370" y="370" as="sourcePoint" />
            <mxPoint x="410" y="345" as="targetPoint" />
          </mxGeometry>
        </mxCell>
        <mxCell id="BPTgxIuJ5kQKBwEXXOTD-2" value="" style="endArrow=none;html=1;exitX=0.489;exitY=0.251;exitDx=0;exitDy=0;exitPerimeter=0;" edge="1" parent="1" source="M0u36gnTDmqWbgYLdVxs-25">
          <mxGeometry width="50" height="50" relative="1" as="geometry">
            <mxPoint x="450" y="830" as="sourcePoint" />
            <mxPoint x="430" y="770" as="targetPoint" />
          </mxGeometry>
        </mxCell>
        <mxCell id="BPTgxIuJ5kQKBwEXXOTD-3" value="" style="endArrow=none;html=1;" edge="1" parent="1">
          <mxGeometry width="50" height="50" relative="1" as="geometry">
            <mxPoint x="395" y="980" as="sourcePoint" />
            <mxPoint x="430" y="980" as="targetPoint" />
          </mxGeometry>
        </mxCell>
        <mxCell id="BPTgxIuJ5kQKBwEXXOTD-4" value="&lt;span style=&quot;font-size: 14px&quot;&gt;Privacidad.&lt;/span&gt;" style="rounded=1;whiteSpace=wrap;html=1;fillColor=#f8cecc;strokeColor=#b85450;" vertex="1" parent="1">
          <mxGeometry x="426" y="740" width="144" height="60" as="geometry" />
        </mxCell>
        <mxCell id="BPTgxIuJ5kQKBwEXXOTD-5" value="&lt;font style=&quot;font-size: 14px&quot;&gt;Conflictos de propiedad intelectual.&lt;/font&gt;" style="rounded=1;whiteSpace=wrap;html=1;fillColor=#f8cecc;strokeColor=#b85450;" vertex="1" parent="1">
          <mxGeometry x="426" y="950" width="144" height="60" as="geometry" />
        </mxCell>
        <mxCell id="BPTgxIuJ5kQKBwEXXOTD-6" value="&lt;font style=&quot;font-size: 14px&quot;&gt;Libre mantenimiento por parte del usuario.&lt;/font&gt;" style="rounded=1;whiteSpace=wrap;html=1;fillColor=#f8cecc;strokeColor=#b85450;" vertex="1" parent="1">
          <mxGeometry x="424" y="335" width="146" height="60" as="geometry" />
        </mxCell>
        <mxCell id="BPTgxIuJ5kQKBwEXXOTD-7" value="" style="endArrow=none;html=1;exitX=1;exitY=0.5;exitDx=0;exitDy=0;entryX=0;entryY=0.5;entryDx=0;entryDy=0;" edge="1" parent="1" source="M0u36gnTDmqWbgYLdVxs-22" target="BPTgxIuJ5kQKBwEXXOTD-6">
          <mxGeometry width="50" height="50" relative="1" as="geometry">
            <mxPoint x="410" y="380" as="sourcePoint" />
            <mxPoint x="460" y="330" as="targetPoint" />
          </mxGeometry>
        </mxCell>
      </root>
    </mxGraphModel>
  </diagram>
</mxfile>
